<svg width="1111" height="122" viewBox="0 0 1111 122" fill="none" xmlns="http://www.w3.org/2000/svg">
<g opacity="0.9">
<path opacity="0.9" d="M973.559 58.5773C980.222 54.6634 982.688 49.1543 982.688 42.9216V28.1366C982.688 27.8982 982.688 27.66 982.67 27.4216C982.569 23.5261 981.597 20.0521 979.92 17.1281C979.911 17.1281 979.911 17.119 979.911 17.119C979.902 17.119 979.902 17.1098 979.902 17.1098L979.893 17.1008C977.84 13.5442 974.714 10.8127 970.819 9.20868C968.225 8.12717 965.292 7.54956 962.103 7.54956H909.347V111.933H963.267C975.447 111.933 983.852 103.518 983.852 91.3461V74.2419C983.852 67.9997 980.809 62.0603 973.559 58.5773ZM930.216 26.9816H956.887C960.077 26.9816 961.819 28.714 961.819 31.9038V44.3788C961.819 48.4304 960.655 49.3011 956.887 49.3011H930.216V26.9816ZM962.973 87.5787C962.973 90.7685 961.241 92.5008 958.051 92.5008H930.216V67.8624H956.31C960.37 67.8624 962.973 68.1466 962.973 72.5005V87.5787Z" fill="#E6E6E6"/>
<path d="M53.3743 44.2873H74.2439V27.4766C74.2439 15.2949 65.8392 6.88953 53.6585 6.88953H20.6081C8.43651 6.88953 0.0227051 15.2948 0.0227051 27.4766V91.8409C0.0227051 104.013 8.43651 112.428 20.6081 112.428H53.6585C65.8392 112.428 74.2439 104.013 74.2439 91.8409V75.0212H53.3743V87.7803C53.3743 90.9701 51.6329 92.7115 48.4434 92.7115H25.8325C22.6429 92.7115 20.9015 90.9701 20.9015 87.7803V31.5373C20.9015 28.3473 22.6429 26.6058 25.8325 26.6058H48.4434C51.633 26.6058 53.3743 28.3473 53.3743 31.5373V44.2873Z" fill="#E6E6E6"/>
<path d="M92.7946 7.46686V111.841H113.673V7.46686H92.7946Z" fill="#E6E6E6"/>
<path d="M128.75 7.46686V26.89H155.999V111.841H176.869V26.89H204.126V7.46686H128.75Z" fill="#E6E6E6"/>
<path d="M219.203 7.46686V111.841H240.073V7.46686H219.203Z" fill="#E6E6E6"/>
<path d="M295.982 75.672L324.019 34.4796L324.605 33.6179L331.543 23.4161V7.46698H260.805V26.8901H305.156L277.422 67.6517H277.413L276.826 68.5225L261.144 91.5753L260.548 92.4461L258.193 95.9015V111.841H331.25V92.4186H284.58L295.386 76.5429L295.982 75.672Z" fill="#E6E6E6"/>
<path d="M349.663 7.46686V111.841H417.936V92.125H370.533V68.3574H408.945V48.6411H370.533V27.1834H417.936V7.46686H349.663Z" fill="#E6E6E6"/>
<path d="M497.226 7.46686V78.6509L458.814 7.46686H436.349V111.841H455.917V40.6666L488.748 101.493L494.33 111.841H516.794V7.46686H497.226Z" fill="#E6E6E6"/>
<path d="M787.145 7.46686L785.843 14.4607L785.633 15.6065L772.938 83.7198L754.094 7.46686H737.569L721.356 73.0595L721.081 74.1778L718.725 83.7198L716.223 70.2915L715.93 68.7149L704.519 7.46697H682.192L692.824 50.2361L693.236 51.9136L704.812 98.468L705.078 99.5315L708.139 111.841H728.725L733.949 90.8602L738.183 73.8389L745.827 43.1325L762.939 111.842H782.654L803.248 28.9527L803.523 27.8527L808.592 7.46714L787.145 7.46686Z" fill="#E6E6E6"/>
<path d="M890.933 27.1834V7.46686H822.661V111.841H890.933V92.125H843.53V68.3574H881.942V48.6411H843.53V27.1834H890.933Z" fill="#E6E6E6"/>
<path d="M1099.96 58.4947C1106.63 54.5808 1109.09 49.072 1109.09 42.839V27.7607C1109.09 18.1914 1102.76 10.1894 1094.03 7.70543C1093.69 7.60452 1093.34 7.51273 1092.99 7.43958C1091.46 7.07285 1089.87 6.88953 1088.22 6.88953H1059.52C1047.92 6.88953 1038.64 16.1657 1038.64 27.7607V38.7783H1059.52V32.1146C1059.52 28.3473 1061.55 26.3124 1065.31 26.3124H1082.42C1086.19 26.3124 1088.22 28.3473 1088.22 32.1146V43.4165C1088.22 48.0635 1086.48 49.2185 1082.42 49.2185H1062.56V67.7706H1082.42C1085.27 67.7706 1087.55 68.4856 1088.65 70.4197C1088.87 70.7863 1089.03 71.1987 1089.14 71.657C1089.3 72.2254 1089.38 72.8579 1089.38 73.5728V87.2029C1089.38 88.6143 1089.1 89.7692 1088.55 90.6767C1087.62 92.1984 1085.94 92.9957 1083.58 92.9957H1064.16C1063.96 92.9957 1063.76 92.9865 1063.58 92.9682C1060.79 92.8125 1059.06 91.4375 1058.54 88.981C1058.43 88.5227 1058.38 88.0186 1058.37 87.4777C1058.36 87.3862 1058.36 87.2944 1058.36 87.2029V80.53H1037.49V91.5475C1037.49 98.5964 1040.92 104.783 1046.2 108.551C1046.35 108.67 1046.5 108.771 1046.65 108.871C1046.91 109.046 1047.18 109.22 1047.44 109.385C1047.55 109.449 1047.67 109.522 1047.79 109.577C1050.88 111.392 1054.49 112.428 1058.36 112.428H1089.4C1089.68 112.428 1089.96 112.419 1090.23 112.41C1091.69 112.355 1093.11 112.153 1094.48 111.814C1094.95 111.695 1095.41 111.566 1095.86 111.411C1100.9 109.788 1105.08 106.314 1107.61 101.768C1107.98 101.108 1108.32 100.43 1108.61 99.7239C1109.66 97.2215 1110.25 94.4534 1110.25 91.5475V74.1503C1110.25 67.9175 1107.21 61.9778 1099.96 58.4947Z" fill="#E6E6E6"/>
<path d="M664.94 60.9719C664.94 71.6729 662.183 81.7332 657.336 90.4777C652.252 99.6533 644.869 107.38 635.964 112.875C626.663 118.626 615.703 121.94 603.972 121.94C592.493 121.94 581.754 118.767 572.586 113.253C563.468 107.769 555.905 99.966 550.707 90.6608C545.799 81.8743 543 71.7491 543 60.9719C543 50.1947 545.799 40.0657 550.707 31.2791C555.734 22.2752 562.98 14.6824 571.705 9.23271C581.064 3.38266 592.123 0 603.972 0C616.149 0 627.49 3.56952 637.009 9.72089C645.216 15.0218 652.069 22.241 656.931 30.7453C662.03 39.6538 664.94 49.9734 664.94 60.9719Z" fill="url(#paint0_linear_32_29368)"/>
<path d="M603.932 101.936C596.504 101.936 589.23 99.9229 582.898 96.1142C576.785 92.4374 571.715 87.2018 568.235 80.9731C564.856 74.9242 563.07 68.0441 563.07 61.0766C563.07 54.1092 564.856 47.2265 568.235 41.1776C571.591 35.1651 576.458 30.0558 582.308 26.4019C588.783 22.354 596.261 20.2146 603.932 20.2146C611.822 20.2146 619.478 22.4674 626.073 26.7291C631.566 30.2773 636.183 35.1496 639.425 40.8196C642.936 46.954 644.791 53.9589 644.791 61.0766C644.791 67.9982 643.029 74.8359 639.695 80.8505C636.297 86.9856 631.344 92.1761 625.372 95.861C618.944 99.8355 611.531 101.936 603.932 101.936Z" fill="black"/>
<path d="M603.932 20.5968C611.748 20.5968 619.332 22.8283 625.865 27.0501C631.307 30.5651 635.881 35.3921 639.093 41.0096C642.571 47.0862 644.409 54.0253 644.409 61.0766C644.409 67.9335 642.664 74.7071 639.361 80.6652C635.994 86.7429 631.087 91.885 625.171 95.536C618.804 99.4729 611.459 101.554 603.932 101.554C596.573 101.554 589.368 99.5595 583.095 95.7865C577.039 92.1441 572.016 86.9573 568.569 80.7867C565.222 74.7944 563.452 67.9787 563.452 61.0766C563.452 54.1744 565.222 47.3561 568.569 41.3636C571.894 35.4074 576.715 30.3458 582.51 26.726C588.925 22.7163 596.332 20.5968 603.932 20.5968ZM603.932 19.8323C595.917 19.8323 588.436 22.1205 582.105 26.0778C576.203 29.7641 571.301 34.9003 567.901 40.991C564.581 46.9346 562.688 53.7837 562.688 61.0766C562.688 68.3694 564.581 75.2159 567.901 81.1595C571.417 87.454 576.533 92.7321 582.701 96.4417C588.903 100.172 596.167 102.318 603.932 102.318C611.867 102.318 619.281 100.076 625.573 96.1863C631.597 92.469 636.591 87.2425 640.03 81.0357C643.309 75.1205 645.174 68.3152 645.174 61.0766C645.174 53.6367 643.205 46.6561 639.756 40.6299C636.467 34.8771 631.831 29.9938 626.28 26.408C619.841 22.2469 612.169 19.8323 603.932 19.8323Z" fill="black"/>
<path d="M551.138 47.038C550.759 46.9511 550.505 47.1107 550.418 47.4896L549.801 50.1785C549.713 50.5576 549.873 50.812 550.252 50.8989L556.94 52.4341C557.319 52.521 557.573 52.3617 557.66 51.9826L558.277 49.2937C558.364 48.9148 558.205 48.6602 557.826 48.5732L556.309 48.225L556.879 45.7431L558.878 46.2021C560.326 46.5343 561.096 47.7637 560.763 49.2115L559.862 53.1412C559.529 54.589 558.3 55.359 556.852 55.0267L549.2 53.27C547.752 52.9378 546.982 51.7087 547.314 50.2608L548.216 46.3311C548.549 44.8833 549.778 44.1129 551.226 44.4453L553.225 44.9043L552.655 47.3862L551.138 47.038Z" fill="#00014F"/>
<path d="M550.981 38.6571L552.037 36.3397L563.623 41.6186L562.567 43.936L550.981 38.6571Z" fill="#00014F"/>
<path d="M559.651 28.3393L568.098 34.3415L566.623 36.4171L558.175 30.4151L556.25 33.1252L554.318 31.7527L559.644 24.2567L561.576 25.6292L559.651 28.3393Z" fill="#00014F"/>
<path d="M563.212 20.5995L565.051 18.838L573.859 28.0321L572.02 29.7938L563.212 20.5995Z" fill="#00014F"/>
<path d="M575.32 14.0909L570.755 16.9972L569.483 14.9983L576.762 10.3636L577.807 12.0044L577.495 22.1818L582.298 19.1235L583.571 21.1225L576.053 25.9091L575.008 24.2684L575.32 14.0909Z" fill="#00014F"/>
<path d="M590.218 5.24246L590.965 7.52834L585.469 9.32457L586.282 11.8122L590.736 10.3565L591.483 12.6427L587.029 14.0983L587.93 16.8548L593.427 15.0586L594.173 17.3447L586.256 19.9319L582.301 7.82961L590.218 5.24246Z" fill="#00014F"/>
<path d="M606.227 3.59888L606.806 16.3178L604.068 16.4426L598.992 7.98203L599.387 16.6557L597.002 16.7643L596.423 4.04518L599.161 3.92063L604.237 12.3812L603.842 3.70748L606.227 3.59888Z" fill="#00014F"/>
<path d="M623.624 20.9938L625.03 12.4713L619.792 19.3395L617.487 18.344L619.627 5.40027L622.128 6.47963L620.032 15.7063L625.829 8.07795L627.68 8.877L626.103 18.3278L631.382 10.4753L633.784 11.5125L625.831 21.9472L623.624 20.9938Z" fill="#00014F"/>
<path d="M644.993 20.7481L643.419 22.5662L639.047 18.7808L637.334 20.7592L640.876 23.8268L639.302 25.6447L635.759 22.5772L633.861 24.7697L638.232 28.5551L636.658 30.3732L630.362 24.9207L638.696 15.2958L644.993 20.7481Z" fill="#00014F"/>
<path d="M652.731 30.7235C653.566 31.9525 653.293 33.3769 652.064 34.2115L650.572 35.2246C649.943 35.6519 649.218 35.7805 648.366 35.3756C648.511 36.3454 648.12 37.0599 647.491 37.4872L645.765 38.6592C644.536 39.4937 643.111 39.2212 642.277 37.9923L638.582 32.5498L649.115 25.3979L652.731 30.7235ZM643.879 36.1346C644.098 36.4564 644.393 36.5126 644.714 36.2942L646.236 35.2613C646.675 34.9631 646.526 34.6801 646.247 34.2703L644.46 31.6369L641.972 33.3254L643.879 36.1346ZM648.16 33.0576C648.418 33.4379 648.585 33.4953 648.995 33.2171L650.253 32.3628C650.575 32.1445 650.631 31.8496 650.413 31.5278L648.585 28.8359L646.332 30.3656L648.16 33.0576Z" fill="#00014F"/>
<path d="M650.33 49.5718C649.88 49.6664 649.689 49.9598 649.783 50.4095L650.271 52.7287C650.365 53.1784 650.659 53.3699 651.108 53.2753L652.735 52.9335C653.254 52.8244 653.355 52.442 653.253 51.9573L652.755 49.5866L654.97 49.1212L655.468 51.4919C655.57 51.9766 655.752 52.1552 656.306 52.0388L657.655 51.7551C658.106 51.6606 658.297 51.3674 658.202 50.9175L657.773 48.8755C657.679 48.4256 657.385 48.2338 656.935 48.3284L656.139 48.4958L655.616 46.0039L656.931 45.7274C658.316 45.4366 659.656 46.3114 659.947 47.6958L660.667 51.1225C660.958 52.507 660.083 53.8471 658.698 54.1379L656.899 54.5161C656.154 54.6726 655.435 54.5166 654.8 53.8186C654.567 54.7712 653.934 55.2837 653.189 55.4402L651.113 55.8765C649.728 56.1673 648.388 55.2923 648.097 53.9079L647.319 50.2044C647.028 48.82 647.903 47.4796 649.287 47.1888L650.603 46.9125L651.126 49.4047L650.33 49.5718Z" fill="#00014F"/>
<path d="M656.699 75.6187C657.078 75.7056 657.333 75.5463 657.42 75.1671L658.037 72.4782C658.124 72.0991 657.964 71.8447 657.585 71.7578L650.898 70.2228C650.519 70.1357 650.264 70.295 650.177 70.6741L649.56 73.3628C649.473 73.7419 649.632 73.9963 650.011 74.0835L651.528 74.4316L650.958 76.9136L648.959 76.4546C647.511 76.1221 646.741 74.8932 647.074 73.4452L647.976 69.5157C648.308 68.0679 649.537 67.2977 650.985 67.63L658.637 69.3869C660.085 69.7189 660.856 70.9483 660.523 72.3959L659.621 76.3256C659.288 77.7734 658.059 78.5436 656.611 78.2113L654.612 77.7522L655.182 75.2705L656.699 75.6187Z" fill="#00014F"/>
<path d="M656.855 84.0003L655.8 86.3177L644.214 81.0385L645.269 78.7212L656.855 84.0003Z" fill="#00014F"/>
<path d="M648.187 94.3176L639.739 88.3156L641.214 86.2397L649.661 92.2417L651.587 89.5317L653.519 90.9042L648.192 98.4002L646.261 97.0276L648.187 94.3176Z" fill="#00014F"/>
<path d="M644.624 102.057L642.785 103.819L633.978 94.6241L635.817 92.8627L644.624 102.057Z" fill="#00014F"/>
<path d="M632.516 108.565L637.081 105.659L638.354 107.658L631.075 112.293L630.029 110.652L630.342 100.475L625.539 103.533L624.266 101.534L631.784 96.7469L632.829 98.3879L632.516 108.565Z" fill="#00014F"/>
<path d="M617.618 117.415L616.871 115.129L622.368 113.332L621.555 110.845L617.1 112.3L616.354 110.014L620.808 108.559L619.907 105.802L614.411 107.598L613.663 105.312L621.58 102.725L625.535 114.827L617.618 117.415Z" fill="#00014F"/>
<path d="M601.61 119.057L601.03 106.338L603.769 106.214L608.845 114.674L608.45 106.001L610.835 105.892L611.414 118.611L608.676 118.735L603.599 110.275L603.994 118.949L601.61 119.057Z" fill="#00014F"/>
<path d="M584.214 101.662L582.807 110.185L588.045 103.317L590.351 104.312L588.21 117.256L585.709 116.177L587.806 106.95L582.008 114.578L580.157 113.779L581.734 104.328L576.455 112.181L574.053 111.144L582.006 100.709L584.214 101.662Z" fill="#00014F"/>
<path d="M562.844 101.909L564.419 100.091L568.79 103.876L570.504 101.897L566.961 98.8293L568.535 97.0116L572.078 100.08L573.977 97.8871L569.605 94.1017L571.179 92.2841L577.476 97.7366L569.141 107.361L562.844 101.909Z" fill="#00014F"/>
<path d="M555.106 91.9333C554.272 90.7044 554.544 89.2797 555.773 88.4452L557.265 87.4325C557.895 87.0052 558.62 86.8766 559.471 87.2815C559.326 86.3112 559.717 85.5967 560.347 85.1695L562.072 83.9977C563.302 83.1632 564.726 83.4356 565.561 84.6646L569.256 90.1071L558.722 97.2587L555.106 91.9333ZM559.677 89.5993C559.419 89.2192 559.252 89.1616 558.842 89.4397L557.584 90.2938C557.262 90.5124 557.206 90.8073 557.424 91.1293L559.252 93.821L561.505 92.2915L559.677 89.5993ZM563.958 86.5222C563.739 86.2002 563.445 86.144 563.123 86.3622L561.601 87.3958C561.162 87.6935 561.312 87.9769 561.59 88.3866L563.378 91.0202L565.865 89.3316L563.958 86.5222Z" fill="#00014F"/>
<path d="M557.507 73.085C557.957 72.9902 558.148 72.6971 558.053 72.2472L557.566 69.9282C557.472 69.4783 557.179 69.2868 556.729 69.3816L555.102 69.7231C554.583 69.8322 554.483 70.2147 554.585 70.6996L555.082 73.0703L552.867 73.5357L552.369 71.165C552.267 70.6801 552.085 70.5014 551.531 70.6179L550.181 70.9016C549.731 70.9961 549.54 71.2893 549.635 71.7394L550.063 73.7814C550.158 74.2315 550.451 74.4225 550.902 74.3282L551.698 74.1608L552.221 76.6527L550.906 76.9292C549.522 77.22 548.181 76.3453 547.891 74.9608L547.171 71.5341C546.88 70.1499 547.755 68.8095 549.139 68.5185L550.938 68.1405C551.683 67.984 552.403 68.1403 553.037 68.8381C553.27 67.8855 553.903 67.3729 554.648 67.2167L556.724 66.7804C558.108 66.4896 559.448 67.3643 559.739 68.7488L560.518 72.4522C560.808 73.8367 559.934 75.1771 558.549 75.4679L557.234 75.7441L556.711 73.2522L557.507 73.085Z" fill="#00014F"/>
<path d="M645.174 60.97H642.979C642.979 66.3566 641.888 71.4769 639.917 76.138C636.961 83.1285 632.017 89.0831 625.796 93.2853C619.574 97.4875 612.088 99.9385 604.009 99.9394C598.623 99.9391 593.502 98.849 588.841 96.8779C581.851 93.9217 575.896 88.9774 571.694 82.7566C567.492 76.5344 565.041 69.0485 565.04 60.97C565.04 55.5834 566.13 50.4631 568.101 45.802C571.058 38.8115 576.002 32.8569 582.223 28.6546C588.445 24.4525 595.931 22.0015 604.009 22.0006C609.396 22.0009 614.516 23.091 619.177 25.0621C626.168 28.0183 632.122 32.9626 636.325 39.1833C640.527 45.4055 642.978 52.8915 642.979 60.97H647.369C647.369 54.9894 646.155 49.2805 643.96 44.0919C640.667 36.3079 635.173 29.6919 628.253 25.0171C621.336 20.3422 612.982 17.6098 604.009 17.6107C598.029 17.6104 592.32 18.824 587.131 21.019C579.347 24.3119 572.731 29.8068 568.056 36.7259C563.382 43.6434 560.649 51.9975 560.65 60.97C560.65 66.9506 561.863 72.6594 564.058 77.848C567.351 85.632 572.846 92.248 579.765 96.9228C586.683 101.598 595.037 104.33 604.009 104.329C609.99 104.33 615.699 103.116 620.887 100.921C628.671 97.6281 635.287 92.1331 639.962 85.2141C644.637 78.2966 647.37 69.9424 647.369 60.97H645.174Z" fill="white"/>
<path d="M601.738 19.8344L601.815 102.136L606.205 102.132L606.127 19.8303" fill="white"/>
<path d="M602.697 59.2109L569.704 83.8316L572.329 87.3498L605.322 62.7292" fill="white"/>
<path d="M602.618 62.7292L635.611 87.3498L638.236 83.8316L605.243 59.2109" fill="white"/>
<path d="M620.184 77.8926C629.16 68.9166 629.16 54.3635 620.184 45.3874C611.207 36.4113 596.654 36.4113 587.678 45.3874C578.702 54.3635 578.702 68.9166 587.678 77.8926C596.654 86.8687 611.207 86.8687 620.184 77.8926Z" fill="url(#paint1_radial_32_29368)"/>
<path d="M606.187 75.5424C613.865 74.2965 619.079 67.0621 617.833 59.384C616.587 51.7059 609.353 46.4916 601.675 47.7376C593.997 48.9836 588.783 56.218 590.028 63.8961C591.274 71.5741 598.509 76.7884 606.187 75.5424Z" fill="black"/>
<path d="M596.135 54.6457C596.135 55.9443 595.083 56.997 593.784 56.997C592.486 56.997 591.433 55.9443 591.433 54.6457C591.433 53.3471 592.486 52.2944 593.784 52.2944C595.083 52.2944 596.135 53.3471 596.135 54.6457Z" fill="white"/>
</g>
<defs>
<linearGradient id="paint0_linear_32_29368" x1="603.975" y1="1.25245" x2="603.975" y2="123.192" gradientUnits="userSpaceOnUse">
<stop stop-color="#E6E6E6"/>
<stop offset="0.1613" stop-color="#E2E2E2"/>
<stop offset="0.3126" stop-color="#D6D6D6"/>
<stop offset="0.46" stop-color="#C3C3C3"/>
<stop offset="0.604" stop-color="#A9A9A9"/>
<stop offset="0.7097" stop-color="#919191"/>
<stop offset="0.8103" stop-color="#858585"/>
<stop offset="0.9874" stop-color="#686868"/>
<stop offset="1" stop-color="#666666"/>
</linearGradient>
<radialGradient id="paint1_radial_32_29368" cx="0" cy="0" r="1" gradientUnits="userSpaceOnUse" gradientTransform="translate(603.947 61.6333) scale(22.9847)">
<stop stop-color="#00014F"/>
<stop offset="0.1746" stop-color="#000450"/>
<stop offset="0.3067" stop-color="#020D57"/>
<stop offset="0.4248" stop-color="#041D61"/>
<stop offset="0.5347" stop-color="#083471"/>
<stop offset="0.6391" stop-color="#0D5284"/>
<stop offset="0.7392" stop-color="#13769C"/>
<stop offset="0.8359" stop-color="#1AA2B8"/>
<stop offset="0.9276" stop-color="#22D2D9"/>
<stop offset="1" stop-color="#2AFFF6"/>
</radialGradient>
</defs>
</svg>
