<svg width="476" height="55" viewBox="0 0 476 55" fill="none" xmlns="http://www.w3.org/2000/svg">
<path d="M294.122 27.051C294.122 31.7986 292.899 36.262 290.748 40.1416C288.493 44.2125 285.217 47.6404 281.267 50.0785C277.14 52.63 272.277 54.1003 267.073 54.1003C261.98 54.1003 257.215 52.6926 253.148 50.246C249.103 47.813 245.747 44.3512 243.441 40.2229C241.264 36.3246 240.022 31.8324 240.022 27.051C240.022 22.2695 241.264 17.7757 243.441 13.8774C245.671 9.8827 248.886 6.51402 252.757 4.09621C256.909 1.50076 261.816 0 267.073 0C272.475 0 277.507 1.58367 281.73 4.3128C285.371 6.66461 288.412 9.86749 290.569 13.6406C292.831 17.5929 294.122 22.1714 294.122 27.051Z" fill="url(#paint0_linear_347_721)"/>
<path d="M267.055 45.2253C263.759 45.2253 260.533 44.3321 257.723 42.6423C255.011 41.0111 252.761 38.6882 251.218 35.9248C249.719 33.2411 248.926 30.1887 248.926 27.0975C248.926 24.0063 249.719 20.9526 251.218 18.269C252.707 15.6015 254.866 13.3346 257.461 11.7135C260.334 9.91766 263.652 8.96848 267.055 8.96848C270.556 8.96848 273.952 9.96796 276.878 11.8587C279.315 13.4329 281.364 15.5946 282.802 18.1102C284.36 20.8318 285.183 23.9396 285.183 27.0975C285.183 30.1683 284.401 33.2019 282.922 35.8704C281.414 38.5923 279.217 40.8952 276.567 42.53C273.716 44.2933 270.426 45.2253 267.055 45.2253Z" fill="black"/>
<path d="M267.055 9.13802C270.523 9.13802 273.888 10.1281 276.786 12.0011C279.2 13.5606 281.23 15.7022 282.655 18.1944C284.198 20.8904 285.013 23.969 285.013 27.0974C285.013 30.1396 284.239 33.1448 282.774 35.7882C281.28 38.4846 279.103 40.766 276.478 42.3858C273.653 44.1324 270.395 45.0556 267.055 45.0556C263.79 45.0556 260.593 44.1708 257.811 42.4969C255.124 40.8809 252.895 38.5797 251.366 35.8421C249.881 33.1835 249.096 30.1596 249.096 27.0974C249.096 24.0352 249.881 21.0102 251.366 18.3515C252.841 15.7089 254.98 13.4633 257.551 11.8573C260.397 10.0783 263.683 9.13802 267.055 9.13802ZM267.055 8.79883C263.499 8.79883 260.18 9.81404 257.371 11.5697C254.753 13.2052 252.578 15.484 251.07 18.1862C249.597 20.8232 248.757 23.8618 248.757 27.0974C248.757 30.333 249.597 33.3705 251.07 36.0075C252.63 38.8001 254.899 41.1418 257.636 42.7876C260.387 44.4426 263.61 45.3948 267.055 45.3948C270.576 45.3948 273.865 44.4002 276.656 42.6743C279.329 41.0251 281.545 38.7063 283.07 35.9525C284.525 33.3282 285.352 30.3089 285.352 27.0974C285.352 23.7966 284.479 20.6996 282.949 18.026C281.49 15.4737 279.433 13.3071 276.97 11.7162C274.113 9.87012 270.71 8.79883 267.055 8.79883Z" fill="black"/>
<path d="M243.632 20.869C243.464 20.8305 243.351 20.9013 243.313 21.0694L243.039 22.2623C243 22.4305 243.071 22.5434 243.239 22.582L246.206 23.2631C246.374 23.3016 246.487 23.2309 246.526 23.0627L246.8 21.8698C246.838 21.7017 246.768 21.5887 246.599 21.5501L245.927 21.3957L246.179 20.2945L247.066 20.4981C247.709 20.6455 248.05 21.191 247.903 21.8333L247.503 23.5768C247.355 24.2191 246.81 24.5607 246.167 24.4133L242.772 23.6339C242.13 23.4865 241.788 22.9412 241.936 22.2989L242.336 20.5554C242.483 19.9131 243.029 19.5712 243.671 19.7187L244.558 19.9224L244.305 21.0235L243.632 20.869Z" fill="#00014F"/>
<path d="M243.563 17.1507L244.031 16.1226L249.171 18.4647L248.703 19.4928L243.563 17.1507Z" fill="#00014F"/>
<path d="M247.409 12.5731L251.157 15.2361L250.502 16.1569L246.755 13.4941L245.9 14.6964L245.043 14.0875L247.406 10.7618L248.263 11.3707L247.409 12.5731Z" fill="#00014F"/>
<path d="M248.989 9.13925L249.805 8.35775L253.713 12.4368L252.897 13.2184L248.989 9.13925Z" fill="#00014F"/>
<path d="M254.361 6.2516L252.336 7.54103L251.771 6.65418L255.001 4.59795L255.464 5.32587L255.326 9.84123L257.457 8.48439L258.021 9.37124L254.686 11.4949L254.223 10.767L254.361 6.2516Z" fill="#00014F"/>
<path d="M260.971 2.32591L261.302 3.34008L258.864 4.137L259.224 5.24067L261.2 4.59484L261.532 5.60911L259.556 6.25494L259.955 7.4779L262.394 6.68098L262.726 7.69525L259.213 8.84308L257.458 3.47374L260.971 2.32591Z" fill="#00014F"/>
<path d="M268.073 1.5967L268.33 7.23961L267.115 7.29497L264.863 3.54134L265.039 7.38954L263.98 7.43772L263.724 1.7947L264.938 1.73945L267.19 5.49308L267.015 1.64488L268.073 1.5967Z" fill="#00014F"/>
<path d="M275.792 9.31418L276.416 5.53308L274.092 8.58024L273.069 8.13856L274.019 2.3959L275.128 2.87478L274.198 6.96833L276.77 3.58389L277.591 3.9384L276.892 8.13139L279.234 4.64752L280.3 5.10769L276.771 9.73717L275.792 9.31418Z" fill="#00014F"/>
<path d="M285.272 9.20515L284.574 10.0118L282.634 8.33237L281.874 9.21012L283.446 10.5711L282.747 11.3776L281.176 10.0167L280.334 10.9894L282.273 12.6688L281.574 13.4755L278.781 11.0564L282.479 6.78618L285.272 9.20515Z" fill="#00014F"/>
<path d="M288.705 13.6309C289.076 14.1762 288.955 14.8081 288.41 15.1784L287.747 15.6279C287.468 15.8175 287.147 15.8745 286.769 15.6949C286.833 16.1251 286.66 16.4421 286.381 16.6317L285.615 17.1517C285.069 17.5219 284.437 17.401 284.067 16.8558L282.428 14.4412L287.101 11.2682L288.705 13.6309ZM284.778 16.0316C284.875 16.1744 285.006 16.1993 285.149 16.1024L285.824 15.6441C286.019 15.5118 285.952 15.3863 285.829 15.2045L285.036 14.0361L283.932 14.7853L284.778 16.0316ZM286.677 14.6664C286.792 14.8352 286.866 14.8607 287.048 14.7372L287.606 14.3582C287.749 14.2613 287.774 14.1305 287.677 13.9878L286.866 12.7934L285.867 13.4721L286.677 14.6664Z" fill="#00014F"/>
<path d="M287.64 21.9932C287.441 22.0351 287.356 22.1653 287.398 22.3648L287.614 23.3938C287.656 23.5933 287.786 23.6782 287.985 23.6363L288.707 23.4846C288.938 23.4362 288.982 23.2666 288.937 23.0515L288.716 21.9997L289.699 21.7933L289.92 22.8451C289.965 23.0601 290.046 23.1393 290.291 23.0877L290.89 22.9618C291.09 22.9199 291.175 22.7898 291.133 22.5902L290.942 21.6842C290.901 21.4846 290.77 21.3996 290.571 21.4415L290.218 21.5158L289.985 20.4102L290.569 20.2875C291.183 20.1585 291.778 20.5466 291.907 21.1609L292.226 22.6812C292.355 23.2954 291.967 23.89 291.353 24.019L290.554 24.1868C290.224 24.2562 289.905 24.187 289.623 23.8773C289.52 24.2999 289.239 24.5273 288.909 24.5968L287.987 24.7903C287.373 24.9194 286.779 24.5311 286.649 23.9169L286.304 22.2738C286.175 21.6596 286.563 21.0649 287.178 20.9359L287.761 20.8133L287.994 21.919L287.64 21.9932Z" fill="#00014F"/>
<path d="M290.466 33.5492C290.634 33.5878 290.747 33.5171 290.786 33.3489L291.059 32.1559C291.098 31.9877 291.027 31.8749 290.859 31.8363L287.892 31.1553C287.724 31.1166 287.611 31.1873 287.572 31.3555L287.298 32.5484C287.26 32.7166 287.331 32.8294 287.499 32.8681L288.172 33.0226L287.919 34.1237L287.032 33.9201C286.39 33.7726 286.048 33.2274 286.196 32.5849L286.596 30.8416C286.743 30.1992 287.288 29.8575 287.931 30.0049L291.326 30.7844C291.968 30.9317 292.31 31.4772 292.162 32.1194L291.762 33.8629C291.615 34.5052 291.069 34.8469 290.427 34.6995L289.54 34.4958L289.793 33.3948L290.466 33.5492Z" fill="#00014F"/>
<path d="M290.535 37.2679L290.067 38.296L284.926 35.9539L285.395 34.9257L290.535 37.2679Z" fill="#00014F"/>
<path d="M286.689 41.8453L282.942 39.1824L283.596 38.2614L287.344 40.9243L288.198 39.7219L289.055 40.3309L286.692 43.6566L285.835 43.0476L286.689 41.8453Z" fill="#00014F"/>
<path d="M285.109 45.2791L284.293 46.0606L280.385 41.9813L281.201 41.1998L285.109 45.2791Z" fill="#00014F"/>
<path d="M279.737 48.1664L281.762 46.877L282.327 47.7639L279.097 49.8203L278.634 49.0923L278.772 44.5769L276.641 45.9337L276.076 45.0468L279.412 42.923L279.876 43.6511L279.737 48.1664Z" fill="#00014F"/>
<path d="M273.127 52.0925L272.796 51.0784L275.234 50.2815L274.874 49.1777L272.897 49.8235L272.566 48.8093L274.542 48.1635L274.143 46.9403L271.704 47.7373L271.372 46.7231L274.885 45.5752L276.64 50.9446L273.127 52.0925Z" fill="#00014F"/>
<path d="M266.025 52.8214L265.768 47.1785L266.983 47.1231L269.235 50.8767L269.059 47.0286L270.118 46.9804L270.375 52.6233L269.16 52.6785L266.908 48.9251L267.083 52.7732L266.025 52.8214Z" fill="#00014F"/>
<path d="M258.307 45.1039L257.683 48.885L260.007 45.8378L261.03 46.2795L260.08 52.0222L258.97 51.5433L259.9 47.4498L257.328 50.8343L256.507 50.4797L257.207 46.2867L254.865 49.7707L253.799 49.3104L257.327 44.681L258.307 45.1039Z" fill="#00014F"/>
<path d="M248.826 45.2131L249.525 44.4065L251.464 46.0859L252.224 45.2081L250.652 43.8469L251.351 43.0405L252.923 44.4016L253.765 43.4289L251.825 41.7495L252.524 40.943L255.317 43.3621L251.62 47.6322L248.826 45.2131Z" fill="#00014F"/>
<path d="M245.393 40.7874C245.023 40.2422 245.144 39.6101 245.689 39.2399L246.351 38.7906C246.63 38.601 246.952 38.544 247.33 38.7236C247.265 38.2931 247.438 37.9761 247.718 37.7866L248.483 37.2667C249.029 36.8964 249.661 37.0173 250.031 37.5625L251.67 39.9772L246.997 43.1501L245.393 40.7874ZM247.421 39.7519C247.306 39.5833 247.232 39.5577 247.05 39.6811L246.492 40.06C246.349 40.157 246.324 40.2879 246.421 40.4307L247.232 41.6249L248.232 40.9463L247.421 39.7519ZM249.32 38.3867C249.223 38.2439 249.092 38.2189 248.949 38.3157L248.274 38.7743C248.08 38.9064 248.146 39.0321 248.269 39.2139L249.063 40.3823L250.166 39.6332L249.32 38.3867Z" fill="#00014F"/>
<path d="M246.458 32.4252C246.658 32.3831 246.742 32.253 246.7 32.0534L246.484 31.0246C246.442 30.825 246.312 30.74 246.113 30.7821L245.391 30.9336C245.161 30.982 245.116 31.1517 245.161 31.3668L245.382 32.4186L244.399 32.6251L244.179 31.5733C244.133 31.3582 244.052 31.2789 243.807 31.3306L243.208 31.4564C243.008 31.4984 242.923 31.6285 242.965 31.8282L243.155 32.7341C243.198 32.9338 243.328 33.0186 243.527 32.9767L243.881 32.9025L244.113 34.008L243.529 34.1307C242.915 34.2597 242.321 33.8716 242.192 33.2574L241.872 31.7371C241.743 31.123 242.131 30.5283 242.745 30.3992L243.544 30.2315C243.874 30.162 244.193 30.2314 244.475 30.541C244.578 30.1183 244.859 29.8909 245.19 29.8216L246.11 29.628C246.725 29.499 247.319 29.8871 247.448 30.5013L247.794 32.1444C247.923 32.7587 247.535 33.3533 246.92 33.4823L246.337 33.6049L246.105 32.4993L246.458 32.4252Z" fill="#00014F"/>
<path d="M285.353 27.0501H284.379C284.379 29.44 283.895 31.7117 283.02 33.7796C281.709 36.881 279.515 39.5229 276.755 41.3873C273.995 43.2516 270.673 44.339 267.089 44.3394C264.7 44.3393 262.428 43.8557 260.36 42.9812C257.259 41.6696 254.617 39.476 252.752 36.7161C250.888 33.9555 249.801 30.6343 249.8 27.0501C249.8 24.6603 250.284 22.3886 251.158 20.3207C252.47 17.2192 254.664 14.5774 257.423 12.713C260.184 10.8487 263.505 9.76124 267.089 9.76084C269.479 9.76098 271.751 10.2446 273.819 11.1191C276.92 12.4307 279.562 14.6243 281.427 17.3842C283.291 20.1448 284.378 23.466 284.379 27.0501H286.326C286.326 24.3968 285.788 21.864 284.814 19.562C283.353 16.1085 280.915 13.1732 277.846 11.0992C274.777 9.02509 271.07 7.81283 267.089 7.81323C264.436 7.81309 261.903 8.35153 259.601 9.32535C256.148 10.7863 253.212 13.2242 251.138 16.2939C249.064 19.363 247.852 23.0694 247.853 27.0501C247.852 29.7035 248.391 32.2363 249.365 34.5383C250.826 37.9918 253.263 40.9271 256.333 43.0011C259.402 45.0752 263.109 46.2874 267.089 46.287C269.743 46.2872 272.276 45.7487 274.578 44.7749C278.031 43.314 280.966 40.8761 283.04 37.8063C285.114 34.7373 286.327 31.0309 286.326 27.0501H285.353Z" fill="white"/>
<path d="M266.082 8.79981L266.116 45.3142L268.063 45.3124L268.029 8.79798" fill="white"/>
<path d="M266.507 26.2697L251.869 37.193L253.034 38.7539L267.672 27.8306" fill="white"/>
<path d="M266.472 27.8306L281.11 38.7539L282.275 37.193L267.637 26.2697" fill="white"/>
<path d="M274.265 34.5581C278.248 30.5758 278.248 24.1191 274.265 20.1367C270.283 16.1544 263.826 16.1544 259.844 20.1368C255.862 24.1191 255.862 30.5758 259.844 34.5581C263.826 38.5405 270.283 38.5405 274.265 34.5581Z" fill="url(#paint1_radial_347_721)"/>
<path d="M268.056 33.5154C271.462 32.9626 273.775 29.753 273.223 26.3465C272.67 22.94 269.46 20.6266 266.054 21.1794C262.647 21.7322 260.334 24.9418 260.887 28.3483C261.439 31.7548 264.649 34.0682 268.056 33.5154Z" fill="black"/>
<path d="M263.596 24.2443C263.596 24.8204 263.129 25.2875 262.553 25.2875C261.977 25.2875 261.51 24.8204 261.51 24.2443C261.51 23.6681 261.977 23.2011 262.553 23.2011C263.129 23.2011 263.596 23.6681 263.596 24.2443Z" fill="white"/>
<g opacity="0.9">
<path d="M23.6701 20.1413H32.9292V12.683C32.9292 7.27842 29.2004 3.54929 23.7962 3.54929H9.13299C3.73289 3.54929 0 7.27838 0 12.683V41.2391C0 46.6396 3.73289 50.3729 9.13299 50.3729H23.7962C29.2004 50.3729 32.9292 46.6396 32.9292 41.2391V33.7768H23.6701V39.4375C23.6701 40.8527 22.8975 41.6253 21.4825 41.6253H11.4508C10.0358 41.6253 9.26315 40.8527 9.26315 39.4375V14.4846C9.26315 13.0693 10.0358 12.2967 11.4508 12.2967H21.4825C22.8976 12.2967 23.6701 13.0693 23.6701 14.4846V20.1413Z" fill="#E6E6E6"/>
<path d="M41.1595 3.80545V50.1125H50.4226V3.80545H41.1595Z" fill="#E6E6E6"/>
<path d="M57.1117 3.80545V12.4228H69.2009V50.1125H78.46V12.4228H90.5533V3.80545H57.1117Z" fill="#E6E6E6"/>
<path d="M97.2424 3.80545V50.1125H106.501V3.80545H97.2424Z" fill="#E6E6E6"/>
<path d="M131.306 34.0655L143.745 15.79L144.005 15.4077L147.083 10.8815V3.8055H115.699V12.4228H135.376L123.072 30.5073H123.068L122.807 30.8936L115.85 41.1213L115.586 41.5076L114.541 43.0406V50.1126H146.953V41.4954H126.248L131.042 34.4519L131.306 34.0655Z" fill="#E6E6E6"/>
<path d="M155.123 3.80545V50.1125H185.413V41.3651H164.382V30.8203H181.424V22.073H164.382V12.553H185.413V3.80545H155.123Z" fill="#E6E6E6"/>
<path d="M220.591 3.80545V35.3872L203.549 3.80545H193.582V50.1125H202.264V18.535L216.829 45.5213L219.306 50.1125H229.272V3.80545H220.591Z" fill="#E6E6E6"/>
<path d="M349.217 3.80545L348.64 6.90836L348.546 7.41669L342.914 37.6361L334.554 3.80545H327.222L320.029 32.9065L319.907 33.4026L318.862 37.6361L317.752 31.6784L317.622 30.979L312.559 3.8055H302.653L307.37 22.7806L307.553 23.5248L312.689 44.1793L312.807 44.6511L314.165 50.1126H323.298L325.616 40.804L327.495 33.2523L330.886 19.629L338.478 50.1126H347.224L356.362 13.3379L356.484 12.8499L358.732 3.80557L349.217 3.80545Z" fill="#E6E6E6"/>
<path d="M395.264 12.553V3.80545H364.974V50.1125H395.264V41.3651H374.233V30.8203H391.275V22.073H374.233V12.553H395.264Z" fill="#E6E6E6"/>
<path d="M471.434 26.4446C474.394 24.7082 475.484 22.2641 475.484 19.4987V12.8091C475.484 8.56353 472.678 5.01335 468.803 3.91129C468.652 3.86651 468.498 3.82579 468.343 3.79334C467.664 3.63063 466.957 3.5493 466.225 3.5493H453.493C448.345 3.5493 444.23 7.6648 444.23 12.8091V17.6972H453.493V14.7407C453.493 13.0693 454.392 12.1665 456.063 12.1665H463.651C465.326 12.1665 466.225 13.0693 466.225 14.7407V19.755C466.225 21.8167 465.452 22.3291 463.651 22.3291H454.843V30.56H463.651C464.915 30.56 465.928 30.8772 466.416 31.7353C466.513 31.8979 466.586 32.0809 466.635 32.2843C466.704 32.5364 466.741 32.817 466.741 33.1342V39.1814C466.741 39.8076 466.615 40.32 466.371 40.7226C465.96 41.3977 465.216 41.7514 464.167 41.7514H455.55C455.461 41.7514 455.376 41.7474 455.294 41.7392C454.054 41.6701 453.29 41.0601 453.058 39.9703C453.009 39.7669 452.985 39.5433 452.98 39.3033C452.976 39.2627 452.976 39.222 452.976 39.1814V36.2209H443.717V41.1089C443.717 44.2363 445.238 46.9812 447.584 48.6526C447.65 48.7055 447.715 48.7502 447.784 48.7949C447.898 48.8722 448.015 48.9495 448.133 49.0227C448.182 49.0512 448.235 49.0836 448.288 49.1081C449.658 49.9133 451.26 50.3729 452.976 50.3729H466.749C466.875 50.3729 466.997 50.3687 467.119 50.3647C467.766 50.3403 468.396 50.2509 469.002 50.1004C469.209 50.0475 469.417 49.9906 469.616 49.9215C471.852 49.2017 473.707 47.6604 474.829 45.6433C474.992 45.3505 475.142 45.0496 475.272 44.7365C475.74 43.6263 476 42.3981 476 41.1089V33.3904C476 30.6252 474.65 27.99 471.434 26.4446Z" fill="#E6E6E6"/>
</g>
<path opacity="0.9" d="M431.922 26.2375C434.879 24.501 435.972 22.0568 435.972 19.2916V12.732C435.972 12.6263 435.972 12.5206 435.964 12.4148C435.92 10.6865 435.488 9.14522 434.744 7.84795C434.74 7.84795 434.74 7.84391 434.74 7.84391C434.736 7.84391 434.736 7.83984 434.736 7.83984L434.732 7.83584C433.821 6.25794 432.435 5.04607 430.707 4.33441C429.556 3.85458 428.255 3.59832 426.839 3.59832H403.434V49.9094H427.356C432.76 49.9094 436.489 46.1762 436.489 40.7757V33.1873C436.489 30.4178 435.139 27.7827 431.922 26.2375ZM412.693 12.2196H424.526C425.941 12.2196 426.713 12.9882 426.713 14.4034V19.9381C426.713 21.7356 426.197 22.1219 424.526 22.1219H412.693V12.2196ZM427.226 39.1043C427.226 40.5195 426.457 41.288 425.042 41.288H412.693V30.3569H424.27C426.071 30.3569 427.226 30.483 427.226 32.4147V39.1043Z" fill="#E6E6E6"/>
<defs>
<linearGradient id="paint0_linear_347_721" x1="267.074" y1="0.555664" x2="267.074" y2="54.6559" gradientUnits="userSpaceOnUse">
<stop stop-color="#E6E6E6"/>
<stop offset="0.1613" stop-color="#E2E2E2"/>
<stop offset="0.3126" stop-color="#D6D6D6"/>
<stop offset="0.46" stop-color="#C3C3C3"/>
<stop offset="0.604" stop-color="#A9A9A9"/>
<stop offset="0.7097" stop-color="#919191"/>
<stop offset="0.8103" stop-color="#858585"/>
<stop offset="0.9874" stop-color="#686868"/>
<stop offset="1" stop-color="#666666"/>
</linearGradient>
<radialGradient id="paint1_radial_347_721" cx="0" cy="0" r="1" gradientUnits="userSpaceOnUse" gradientTransform="translate(267.062 27.3445) scale(10.1975)">
<stop stop-color="#00014F"/>
<stop offset="0.1746" stop-color="#000450"/>
<stop offset="0.3067" stop-color="#020D57"/>
<stop offset="0.4248" stop-color="#041D61"/>
<stop offset="0.5347" stop-color="#083471"/>
<stop offset="0.6391" stop-color="#0D5284"/>
<stop offset="0.7392" stop-color="#13769C"/>
<stop offset="0.8359" stop-color="#1AA2B8"/>
<stop offset="0.9276" stop-color="#22D2D9"/>
<stop offset="1" stop-color="#2AFFF6"/>
</radialGradient>
</defs>
</svg>
